<?xml version="1.0" encoding="UTF-8" standalone="no"?>
<!-- Created with Inkscape (http://www.inkscape.org/) -->
<svg
   xmlns:dc="http://purl.org/dc/elements/1.1/"
   xmlns:cc="http://creativecommons.org/ns#"
   xmlns:rdf="http://www.w3.org/1999/02/22-rdf-syntax-ns#"
   xmlns:svg="http://www.w3.org/2000/svg"
   xmlns="http://www.w3.org/2000/svg"
   xmlns:sodipodi="http://sodipodi.sourceforge.net/DTD/sodipodi-0.dtd"
   xmlns:inkscape="http://www.inkscape.org/namespaces/inkscape"
   id="svg2"
   sodipodi:version="0.32"
   inkscape:version="0.46"
   width="1772"
   height="775"
   version="1.0"
   sodipodi:docname="etf.svg"
   inkscape:output_extension="org.inkscape.output.svg.inkscape">
  <metadata
     id="metadata7">
    <rdf:RDF>
      <cc:Work
         rdf:about="">
        <dc:format>image/svg+xml</dc:format>
        <dc:type
           rdf:resource="http://purl.org/dc/dcmitype/StillImage" />
      </cc:Work>
    </rdf:RDF>
  </metadata>
  <defs
     id="defs5">
    <inkscape:perspective
       sodipodi:type="inkscape:persp3d"
       inkscape:vp_x="0 : 526.18109 : 1"
       inkscape:vp_y="0 : 1000 : 0"
       inkscape:vp_z="744.09448 : 526.18109 : 1"
       inkscape:persp3d-origin="372.04724 : 350.78739 : 1"
       id="perspective9" />
  </defs>
  <sodipodi:namedview
     inkscape:window-height="753"
     inkscape:window-width="1280"
     inkscape:pageshadow="2"
     inkscape:pageopacity="0.0"
     guidetolerance="10.0"
     gridtolerance="10.0"
     objecttolerance="10.0"
     borderopacity="1.0"
     bordercolor="#666666"
     pagecolor="#ffffff"
     id="base"
     showgrid="false"
     inkscape:zoom="0.66817156"
     inkscape:cx="886"
     inkscape:cy="387.5"
     inkscape:window-x="-4"
     inkscape:window-y="-4"
     inkscape:current-layer="svg2" />
  <path
     id="path2398"
     d="M 261.63019,297.21065 C 261.34956,296.75659 263.86125,287.80091 267.21171,277.30914 C 270.56217,266.81737 273.0511,257.57555 272.74266,256.77177 C 272.43422,255.96799 264.94094,250.02556 256.09093,243.56637 C 247.24092,237.10718 240,231.41235 240,230.91119 C 240,230.39344 248.74362,229.99339 260.25,229.98469 C 271.3875,229.97627 281.06989,229.60764 281.76643,229.16552 C 282.46297,228.72339 285.86776,219.87035 289.33264,209.49209 C 292.79752,199.11383 296.14218,190.45261 296.76524,190.24492 C 297.45581,190.01473 300.1069,196.82272 303.55603,207.68366 C 306.66791,217.48265 309.85122,226.5125 310.63005,227.75 C 312.02344,229.96398 312.37394,230 332.52305,230 C 345.65161,230 353,230.36269 353,231.01066 C 353,231.56652 346.5875,236.74747 338.75,242.52389 C 330.9125,248.30031 323.38138,253.85181 322.01419,254.86056 L 319.52837,256.69466 L 325.87391,276.26816 C 329.36395,287.03359 332.04585,296.36246 331.83367,296.99899 C 331.61937,297.64189 323.9994,292.78762 314.69077,286.07816 C 305.47435,279.43517 297.35553,274 296.64896,274 C 295.94238,274 289.31982,278.39798 281.93214,283.77329 C 262.51667,297.90008 262.18994,298.11634 261.63019,297.21065 z"
     style="fill:#cdd2d5"
     sodipodi:nodetypes="cssssssssssssscccssssc" />
  <path
     id="path2396"
     d="M 451,159.39438 C 442.475,153.17387 434.825,148.06747 434,148.04682 C 433.175,148.02618 425.59468,152.98938 417.15483,159.07615 C 408.71499,165.16292 401.54968,169.88302 401.23192,169.56525 C 400.91416,169.24749 403.20961,161.00282 406.33293,151.24375 C 409.45625,141.48469 412.00906,132.99654 412.00584,132.38119 C 412.00263,131.76585 404.6875,125.91585 395.75,119.38119 L 379.5,107.5 L 399.66936,107 C 410.7625,106.725 420.14023,106.19728 420.50874,105.82729 C 420.87725,105.45729 423.87237,97.019794 427.16457,87.077286 C 430.45676,77.134779 433.4675,69 433.8551,69 C 434.24269,69 436.98369,76.656715 439.94621,86.014921 C 442.90873,95.373128 445.95828,103.92313 446.723,105.01492 C 448.02886,106.87929 449.29574,107 467.5567,107 C 478.25052,107 486.98769,107.3375 486.97265,107.75 C 486.95761,108.1625 480.09511,113.46625 471.72265,119.5361 C 461.20199,127.16336 456.40222,131.24902 456.18343,132.76338 C 456.00931,133.96853 458.39728,142.65089 461.49002,152.0575 C 464.58276,161.46412 466.97522,169.50784 466.80659,169.93243 C 466.63797,170.35702 459.525,165.6149 451,159.39438 z"
     style="fill:#98a2aa"
     sodipodi:nodetypes="cssssscccsssssssssssc" />
  <path
     id="path2394"
     d="M 635.49489,111.73613 C 631.6477,108.92705 624.93022,104.01225 620.56715,100.81435 C 616.20408,97.616459 611.81855,95 610.82153,95 C 609.82451,95 602.4419,99.760101 594.41572,105.578 C 586.38954,111.3959 579.64677,115.9801 579.43177,115.76511 C 579.21678,115.55012 581.4972,107.75251 584.49938,98.437106 C 587.50156,89.121698 589.96736,80.924968 589.97894,80.22215 C 589.99052,79.519333 583.17876,73.894333 574.84169,67.72215 L 559.68339,56.5 L 578.09169,56 C 588.21626,55.725 597.04857,55.144551 597.71905,54.710112 C 598.38952,54.275674 601.46854,46.014687 604.5613,36.352364 C 607.65406,26.69004 610.53682,19.17049 610.96744,19.642252 C 611.39805,20.114013 614.31891,28.2625 617.45824,37.75 C 620.59757,47.2375 623.24123,55.087865 623.33305,55.195256 C 623.42487,55.302647 632.19518,55.640147 642.82262,55.945256 L 662.14524,56.5 L 647.07262,67.417718 C 635.1994,76.017975 632,78.822128 632,80.628279 C 632,81.889343 634.45406,90.45981 637.45347,99.67376 C 640.45287,108.88771 642.81308,116.52026 642.69836,116.63497 C 642.58364,116.74969 639.34208,114.54521 635.49489,111.73613 z"
     style="fill:#78848c"
     sodipodi:nodetypes="csssssscccssssscccsssc" />
  <path
     id="path2392"
     d="M 760,144.8923 C 760,144.27491 762.475,136.01815 765.5,126.54396 C 768.525,117.06976 771,108.65053 771,107.83456 C 771,107.01858 764.025,101.28619 755.5,95.095896 C 746.975,88.905607 740,83.426639 740,82.920412 C 740,82.391529 748.2429,82 759.37756,82 C 773.68238,82 779.01553,81.67277 779.7499,80.75 C 780.29703,80.0625 783.38,71.5125 786.60095,61.75 C 789.82189,51.9875 792.69184,44.008154 792.97861,44.01812 C 793.26537,44.028086 796.21724,52.465586 799.53832,62.76812 L 805.57664,81.5 L 825.78832,81.770705 C 836.90474,81.919594 846,82.397977 846,82.83378 C 846,83.269583 839.025,88.715554 830.5,94.935938 C 819.57443,102.90793 815,106.82701 815,108.21535 C 815,109.29864 817.52732,118.04103 820.61627,127.64288 C 823.70522,137.24473 826.06772,145.26475 825.86627,145.46514 C 825.66482,145.66553 818.35332,140.69285 809.61848,134.41474 C 800.88365,128.13663 793.30325,123 792.77315,123 C 792.24306,123 784.65224,128.17834 775.90467,134.50742 C 767.1571,140.8365 760,145.5097 760,144.8923 z"
     style="fill:#6e7b83"
     sodipodi:nodetypes="csssssssscccssssssssc" />
  <path
     id="path2390"
     d="M 982,419.36622 C 982,419.01765 984.72821,410.21478 988.06269,399.80429 C 991.39717,389.3938 993.96366,380.39098 993.76601,379.79803 C 993.56836,379.20509 986.22765,373.47235 977.45332,367.05861 C 968.679,360.64488 961.5,354.97039 961.5,354.44864 C 961.5,353.89662 970.2457,353.29095 982.4179,353 L 1003.3358,352.5 L 1009.7512,333.25 C 1013.2797,322.6625 1016.5595,314 1017.0395,314 C 1017.5196,314 1020.7446,322.6625 1024.2062,333.25 L 1030.5,352.5 L 1050.9714,352.77141 C 1062.2307,352.92069 1071.8322,353.43224 1072.3082,353.90819 C 1072.7953,354.39535 1066.0905,359.94962 1056.9672,366.61672 C 1048.0536,373.13046 1040.5298,379.06172 1040.2475,379.79732 C 1039.9653,380.53291 1042.2178,388.86693 1045.2532,398.31738 C 1052.5192,420.93912 1052.2575,420 1051.2938,420 C 1050.8312,420 1043.2838,414.825 1034.5217,408.5 C 1025.7596,402.175 1017.8439,397 1016.9313,397 C 1016.0187,397 1008.0649,402.175 999.25636,408.5 C 983.78443,419.60962 982,420.73326 982,419.36622 z"
     style="fill:#049fc3"
     sodipodi:nodetypes="csssscccscccssssssssc" />
  <path
     style="fill:#43545e"
     d="M 944.03125 151.625 C 943.7361 151.91658 940.8 160.09227 937.5 169.8125 L 931.5 187.5 L 912.03125 188 L 892.59375 188.5 L 907.78125 199.5 C 918.91731 207.54576 923 211.02181 923 212.53125 C 923 213.66486 920.51749 222.23856 917.5 231.5625 C 914.48253 240.88644 912.00755 248.67223 912 248.875 C 911.99247 249.07778 913.4625 248.15359 915.25 246.8125 C 928.19566 237.09985 942.90512 227 944.125 227 C 944.92865 227 952.41775 231.91565 960.78125 237.9375 C 969.14472 243.95934 976 248.61404 976 248.28125 C 976 247.94847 973.44875 239.92144 970.34375 230.4375 C 967.23875 220.95356 964.96714 212.53727 965.28125 211.71875 C 965.59534 210.90023 972.68541 205.2366 981.03125 199.125 L 996.1875 188 L 977.6875 188 C 967.5025 188 958.50507 187.75123 957.6875 187.4375 C 956.80202 187.09771 953.83497 179.62093 950.375 168.96875 C 947.18026 159.13317 944.32642 151.33342 944.03125 151.625 z M 8 356 L 8 550.5 L 8 745 L 141.5 745 L 275 745 L 275 702.5 L 275 660 L 196.6875 660 C 137.12083 660 118.1004 659.72541 117.1875 658.8125 C 115.47159 657.09659 115.47159 595.9034 117.1875 594.1875 C 118.09823 593.27677 135.45417 593 189.1875 593 L 260 593 L 260 550.5 L 260 508 L 189.1875 508 C 135.45417 508 118.09823 507.72324 117.1875 506.8125 C 116.30625 505.93125 116 497.43363 116 474.875 C 116 457.97998 116.2599 443.46373 116.59375 442.59375 C 117.14015 441.16986 125.07613 441 196.09375 441 L 275 441 L 275 398.5 L 275 356 L 141.5 356 L 8 356 z M 318 356 L 318 398.5 L 318 440.96875 L 364.25 441.25 L 410.5 441.5 L 410.75 593.25 L 411 745 L 464.5 745 L 518 745 L 518.25 593.25 L 518.5 441.5 L 564.75 441.25 L 611 440.96875 L 611 398.5 L 611 356 L 464.5 356 L 318 356 z M 651 356 L 651 550.5 L 651 745 L 704.5 745 L 758 745 L 758 670.1875 C 758 613.34306 758.27555 595.09943 759.1875 594.1875 C 760.09823 593.27677 777.45416 593 831.1875 593 L 902 593 L 902 550.5 L 902 508 L 831.9375 508 C 785.55176 508 761.21803 507.65408 759.9375 506.96875 C 758.08847 505.97918 758 504.54339 758 474.65625 C 758 451.6725 758.30533 443.06965 759.1875 442.1875 C 760.1004 441.2746 779.12082 441 838.6875 441 L 917 441 L 917 398.5 L 917 356 L 784 356 L 651 356 z M 980.21875 543.84375 C 977.33115 543.93307 974.74205 544.49331 974.34375 545.53125 C 973.74972 547.07928 990.33405 614.87234 992.125 618.21875 C 993.51152 620.80949 1006.4903 620.83527 1007.8438 618.25 C 1008.3476 617.2875 1011.1262 607.27503 1014 596 C 1016.8738 584.725 1019.5224 575.16474 1019.9062 574.75 C 1020.2903 574.33527 1023.0227 583.56027 1025.9688 595.25 C 1028.9146 606.93974 1031.7062 617.28753 1032.1875 618.25 C 1033.3444 620.56389 1045.0978 620.7855 1046.9688 618.53125 C 1048.6008 616.56492 1066.2735 547.17758 1065.5938 545.40625 C 1064.8992 543.59641 1054.6623 543.46587 1053.2188 545.25 C 1052.6625 545.9375 1049.7015 556.81173 1046.625 569.40625 C 1043.5486 582.00079 1040.8421 592.50153 1040.5938 592.75 C 1040.0947 593.24909 1040.0828 593.25681 1033.4375 567 C 1027.0802 541.881 1028.2262 544.00003 1021 544 C 1015.6791 544 1014.8392 544.26993 1014 546.25 C 1013.4755 547.4875 1010.5313 558.39059 1007.4688 570.46875 C 1004.406 582.54693 1001.7068 592.60574 1001.4688 592.84375 C 1000.8364 593.47606 1000.5727 592.54184 994.90625 569 C 992.05994 557.175 989.34335 546.71253 988.84375 545.75 C 988.22006 544.54844 984.82232 543.89149 981.46875 543.84375 C 981.04955 543.83778 980.63126 543.83099 980.21875 543.84375 z M 1629.0938 544.09375 C 1628.289 544.09687 1627.382 544.13368 1626.3438 544.1875 L 1620.5 544.5 L 1620.25 581 C 1620.1055 601.07259 1620.2038 618.06008 1620.4688 618.75 C 1621.0983 620.39064 1632.1811 620.44392 1633.8125 618.8125 C 1634.6536 617.97139 1635 612.41085 1635 600.25 C 1635 586.81341 1635.3428 582.23793 1636.5 580 C 1639.7991 573.62029 1647.2119 571.88852 1650.9375 576.625 C 1652.8687 579.08014 1652.9856 580.56366 1653 598.375 C 1653.0084 608.88833 1653.3894 618.09648 1653.8438 618.8125 C 1654.4171 619.71656 1656.643 620.02211 1661.0938 619.8125 L 1667.5 619.5 L 1667.5 597 C 1667.5 577.01554 1667.2889 574.06697 1665.625 570.71875 C 1662.6213 564.67418 1658.7373 562.54835 1650 562.15625 C 1643.2957 561.8554 1642.1021 562.08983 1638.75 564.375 L 1635 566.9375 L 1635 556.59375 C 1635 545.82089 1634.7271 544.07189 1629.0938 544.09375 z M 1222.9062 544.125 C 1222.1452 544.1211 1221.2945 544.13821 1220.3438 544.1875 L 1214.5 544.5 L 1214.1875 549.375 C 1214.0171 552.05512 1214.1371 554.87359 1214.4375 555.65625 C 1214.8517 556.73582 1216.6188 557.00582 1221.75 556.78125 L 1228.5 556.5 L 1228.7812 551.40625 C 1229.1155 545.67224 1228.234 544.15231 1222.9062 544.125 z M 1165.1875 544.15625 C 1162.8602 544.21413 1161.0326 544.54279 1160.4062 545.0625 C 1159.2343 546.0351 1159 552.31213 1159 581.53125 C 1159 600.94392 1159.2821 617.57518 1159.625 618.46875 C 1160.1305 619.78599 1161.5024 620.0187 1166.875 619.78125 L 1173.5 619.5 L 1174 610.25 C 1174.4884 601.22605 1174.5988 600.92812 1178.1562 597.375 L 1181.7812 593.75 L 1186.875 603.625 C 1195.764 620.85742 1194.9623 620.00003 1202.5312 620 C 1207.3832 620 1209.2048 619.62631 1209.625 618.53125 C 1209.9369 617.71864 1206.3228 609.60595 1201.5938 600.53125 C 1196.8648 591.45656 1193 583.52712 1193 582.90625 C 1193 582.28537 1196.15 578.40377 1200 574.28125 C 1203.85 570.15871 1207 565.95052 1207 564.90625 C 1207 563.23828 1206.2086 563.00003 1200.5625 563 L 1194.1562 563 L 1184.9375 573.5 C 1179.8815 579.275 1175.3788 584.00003 1174.9062 584 C 1174.4338 584 1173.9306 575.11253 1173.7812 564.25 L 1173.5 544.5 L 1167.6562 544.1875 C 1166.796 544.14291 1165.9633 544.13696 1165.1875 544.15625 z M 1395.1875 548.15625 C 1394.2407 548.15915 1393.0897 548.25978 1391.75 548.4375 C 1388.8765 548.81868 1386.1957 549.66084 1385.7812 550.3125 C 1385.3668 550.96418 1385.0083 554.05666 1385 557.1875 L 1385 562.875 L 1380.75 563.1875 L 1376.5 563.5 L 1376.5 568.5 L 1376.5 573.5 L 1380.125 573.8125 L 1383.7188 574.09375 L 1384.2188 591.3125 C 1384.8528 613.41708 1386.3126 617.13203 1395.6875 620.625 C 1399.3071 621.97362 1409.8158 621.84532 1412.0938 620.4375 C 1412.5969 620.1265 1413 617.43001 1413 614.4375 L 1413 609 L 1408.3438 609 C 1400.3512 609 1400 608.24019 1400 589.90625 L 1400 574.09375 L 1405.75 573.8125 L 1411.5 573.5 L 1411.5 568.5 L 1411.5 563.5 L 1405.75 563.1875 L 1400 562.90625 L 1400 556.5625 C 1400 550.05933 1399.2905 548.14368 1395.1875 548.15625 z M 1597.9062 548.1875 C 1596.9241 548.20274 1595.7526 548.34427 1594.375 548.5625 L 1588.5 549.5 L 1588 556 L 1587.5 562.5 L 1584 562.84375 C 1579.5073 563.27003 1578 564.55975 1578 568.03125 C 1578 572.8998 1578.9087 574.00003 1583 574 L 1586.8125 574 L 1587.1562 591.25 C 1587.4733 606.799 1587.7158 608.95846 1589.7812 613.15625 C 1591.9706 617.60551 1594.8925 619.83023 1600.5 621.34375 C 1603.6767 622.20118 1613.0021 621.25323 1614.625 619.90625 C 1615.6325 619.07011 1616.0155 617.21857 1615.8125 614.09375 L 1615.5 609.5 L 1610.1875 608.96875 C 1607.108 608.65939 1604.507 607.81992 1603.9688 606.96875 C 1603.4585 606.16197 1603.0083 598.41253 1603 589.75 L 1603 574 L 1608.4062 574 C 1614.2075 574 1615 573.28955 1615 568.125 C 1615 564.23846 1613.2799 563.00003 1607.8125 563 L 1603 563 L 1603 557.1875 C 1603 550.26987 1602.1622 548.12146 1597.9062 548.1875 z M 1340.0625 554.125 C 1335.4286 554.24848 1331.927 556.05232 1329.9062 559.375 L 1328.0625 562.40625 L 1318.2812 562.4375 C 1309.459 562.4817 1308.0462 562.77953 1303.8438 565.25 C 1295.1406 570.36623 1291.685 580.5367 1295.875 588.75 C 1297.0278 591.00967 1298.4599 593.15885 1299.0625 593.53125 C 1299.7427 593.95162 1298.955 595.20438 1297 596.84375 C 1293.0242 600.17799 1291.8413 606.56889 1294.4375 610.53125 C 1296.0809 613.0393 1296.0259 613.20129 1292.9375 616.71875 C 1290.0914 619.96024 1289.8297 620.81338 1290.25 625.1875 C 1290.9486 632.45867 1294.8749 636.1756 1304.5 638.65625 C 1307.5412 639.44005 1313.865 639.82875 1320.625 639.65625 C 1330.6121 639.40143 1332.3357 639.08016 1337.625 636.4375 C 1347.6154 631.446 1350.9132 622.69864 1345.75 614.90625 C 1341.9118 609.11364 1336.0038 606.9674 1321.5625 606.125 C 1308.5735 605.36732 1305.6154 604.36043 1307.9375 601.5625 C 1308.8747 600.43328 1311.2992 600.07051 1317.5625 600.09375 C 1327.3333 600.13001 1333.0465 598.08941 1337.25 593.09375 C 1342.4004 586.9729 1342.9833 579.28278 1338.8438 572.09375 C 1336.3328 567.73314 1337.0512 566.00003 1341.3438 566 C 1345.7758 566 1347.1951 564.12995 1346.8125 558.8125 L 1346.5 554.5 L 1342.125 554.1875 C 1341.4169 554.13679 1340.7245 554.10736 1340.0625 554.125 z M 1519.3125 554.5 C 1514.1735 554.50563 1512.7204 554.90825 1510.5938 556.90625 C 1509.1879 558.22702 1507.8019 560.08022 1507.5 561.03125 C 1507.0199 562.5441 1505.902 562.70205 1498.6562 562.25 C 1491.612 561.81053 1489.6364 562.06261 1485.4688 563.90625 C 1479.4432 566.57164 1477.3431 568.44415 1474.9062 573.21875 C 1472.1333 578.65195 1472.3878 585.80518 1475.5312 590.4375 L 1478.0625 594.1875 L 1475.0312 597.625 C 1471.5871 601.54772 1471.0459 606.25431 1473.5 611 C 1474.722 613.36318 1474.7551 614.03596 1473.6875 614.6875 C 1469.1365 617.46492 1467.5873 625.80435 1470.6562 631 C 1472.6555 634.3844 1478.383 637.76144 1484.2188 639 C 1486.5729 639.49964 1493.5492 639.77085 1499.7188 639.59375 C 1509.487 639.31337 1511.6403 638.90957 1516.4375 636.5625 C 1523.7075 633.0056 1526.5 629.05548 1526.5 622.3125 C 1526.5 615.88553 1524.1574 612.40263 1517.75 609.1875 C 1513.9952 607.30342 1510.7512 606.71934 1500.5625 606.125 C 1487.9577 605.38973 1485.2168 604.49927 1486.3438 601.5625 C 1486.8296 600.29642 1488.7114 600.00003 1496.1562 600 C 1506.949 600 1512.4048 597.96816 1516.7188 592.3125 C 1520.4805 587.38045 1521.0498 578.97903 1518.0312 573.0625 C 1515.3245 567.75667 1515.9057 566.00003 1520.3438 566 C 1524.7758 566 1526.1951 564.12995 1525.8125 558.8125 L 1525.5 554.5 L 1519.3125 554.5 z M 1090.375 562 C 1082.0685 561.98861 1077.5374 563.61312 1072.0938 568.53125 C 1066.0372 574.00297 1063.5439 580.71853 1063.5312 591.5 C 1063.5228 598.78354 1063.9542 601.45362 1065.8125 605.5 C 1069.6505 613.85742 1075.4966 618.91486 1083.7188 620.96875 C 1088.3513 622.12601 1097.0019 621.46011 1101.4688 619.59375 C 1106.6879 617.4131 1112.5503 611.46539 1115.125 605.75 C 1118.3307 598.63412 1118.4563 584.74915 1115.375 578 C 1110.4194 567.146 1102.4143 562.01647 1090.375 562 z M 1440.5 562 C 1432.0583 562 1427.5553 563.59695 1422.0938 568.53125 C 1416.0372 574.00297 1413.5439 580.71853 1413.5312 591.5 C 1413.5228 598.78354 1413.9542 601.45362 1415.8125 605.5 C 1419.6505 613.85742 1425.4966 618.91486 1433.7188 620.96875 C 1438.3513 622.12601 1447.0019 621.46011 1451.4688 619.59375 C 1456.692 617.4114 1462.5593 611.46281 1465.125 605.75 C 1467.0344 601.49838 1467.4688 598.80014 1467.4688 591.5 C 1467.4688 580.71928 1464.9702 574.00953 1458.9062 568.53125 C 1453.4447 563.59697 1448.9417 562.00003 1440.5 562 z M 1701.5625 562.03125 C 1697.25 562.05008 1692.9361 562.54742 1690.6562 563.5 C 1681.0251 567.52412 1674.9445 577.00048 1674.2188 589.09375 C 1673.6099 599.24076 1675.6666 606.20949 1681.0938 612.375 C 1685.5539 617.44207 1688.7924 619.4816 1694.7188 620.96875 C 1699.6145 622.1973 1708.9745 621.46059 1713.75 619.46875 C 1718.5009 617.48716 1723.6115 612.62512 1726.1875 607.625 C 1728.6648 602.8166 1727.6264 601.51047 1720.6875 600.625 C 1716.0113 600.02827 1715.781 600.12751 1711.5312 604.5 C 1707.7492 608.39147 1706.6204 609.00003 1703.0312 609 C 1697.1309 609 1693.5367 606.80926 1691.625 602.03125 C 1688.6843 594.6819 1687.8924 595.00003 1708.4688 595 C 1729.6899 595 1729.6934 595.00355 1728.4375 586.21875 C 1726.9429 575.76294 1720.6811 566.8637 1712.4062 563.40625 C 1710.1736 562.47339 1705.875 562.01242 1701.5625 562.03125 z M 1269.2188 562.0625 C 1268.5521 562.07878 1267.8151 562.11994 1267 562.15625 C 1261.1837 562.4153 1258.79 563.00515 1256.3438 564.75 C 1252.4901 567.49888 1252.3555 567.49167 1251.6875 564.9375 C 1251.2072 563.10073 1250.5164 562.91887 1244.8438 563.1875 L 1238.5 563.5 L 1238.2188 590.5 C 1238.072 605.3418 1238.1706 618.05431 1238.4375 618.75 C 1239.2043 620.7482 1251.626 620.43965 1252.4062 618.40625 C 1252.7401 617.53627 1253 609.4227 1253 600.375 C 1253 582.64586 1253.8401 578.62626 1258.125 575.625 C 1262.2308 572.7492 1268.8409 573.86753 1270.5312 577.71875 C 1270.9604 578.69653 1271.5833 588.50003 1271.9062 599.5 L 1272.5 619.5 L 1278.3438 619.8125 C 1287.5189 620.28809 1287.2809 620.88725 1286.8438 597.03125 C 1286.4869 577.56482 1286.3222 576.23807 1283.9688 571.5 C 1282.5429 568.62953 1280.0099 565.49744 1278 564.15625 C 1275.7177 562.6333 1274.3289 562.10864 1271.0312 562.0625 C 1270.4817 562.05481 1269.8854 562.04622 1269.2188 562.0625 z M 1552.5938 562.0625 C 1548.6204 562.01879 1544.4898 562.38539 1541.8125 563.1875 C 1532.0767 566.10444 1525.0835 576.64397 1524.2188 589.71875 C 1523.2206 604.81042 1530.9646 617.03405 1543.8125 620.65625 C 1549.6223 622.29423 1558.784 621.6244 1564.3438 619.15625 C 1568.8678 617.14787 1575.5068 610.45513 1577.0938 606.28125 C 1578.4132 602.81072 1576.8627 601.43135 1570.7812 600.65625 C 1566.2019 600.07257 1565.9025 600.19233 1561.625 604.53125 C 1557.835 608.3757 1556.645 609.00003 1553.1562 609 C 1545.8705 609 1542.1537 605.83734 1540.5312 598.25 L 1539.8438 595 L 1558.3125 595 C 1579.7669 595 1579.6573 595.03437 1578.5625 586.78125 C 1577.1329 576.00448 1570.8552 566.93646 1562.4062 563.40625 C 1560.3621 562.55218 1556.567 562.10621 1552.5938 562.0625 z M 1758.7812 562.125 C 1756.368 562.21055 1755.135 562.84985 1753.0625 564.59375 L 1749.875 567.28125 L 1748.3438 565.09375 C 1747.025 563.211 1746.0321 562.93145 1741.1562 563.1875 L 1735.5 563.5 L 1735.2188 590.5 C 1735.072 605.3418 1735.192 618.06024 1735.4688 618.78125 C 1735.8315 619.72634 1737.8738 619.99466 1742.75 619.78125 L 1749.5 619.5 L 1750 602.5 C 1750.6421 580.66731 1751.7396 578.36828 1762.5 576.21875 L 1766.5 575.40625 L 1766.5 568.96875 L 1766.5 562.5 L 1761.375 562.1875 C 1760.8327 562.15595 1760.3614 562.13478 1759.9062 562.125 C 1759.5081 562.11644 1759.126 562.11278 1758.7812 562.125 z M 1149.7188 562.15625 C 1146.9577 562.12401 1145.2133 562.73346 1142.6562 564.46875 C 1138.146 567.52951 1138.3526 567.48086 1137.6875 564.9375 C 1137.2072 563.10073 1136.5164 562.91887 1130.8438 563.1875 L 1124.5 563.5 L 1124.2188 590.5 C 1124.072 605.3418 1124.192 618.06024 1124.4688 618.78125 C 1124.8315 619.72634 1126.8738 619.99466 1131.75 619.78125 L 1138.5 619.5 L 1139 602.5 C 1139.3001 592.47429 1139.9786 584.67953 1140.6562 583.5 C 1142.819 579.73672 1146.5001 577.18544 1151 576.3125 L 1155.5 575.4375 L 1155.5 568.96875 L 1155.5 562.5 L 1150.9688 562.21875 C 1150.5265 562.1899 1150.1131 562.16086 1149.7188 562.15625 z M 1223.8438 563.125 C 1223.0017 563.1117 1222.019 563.1351 1220.9062 563.1875 L 1214.5 563.5 L 1214.2188 590.5 C 1214.072 605.3418 1214.1706 618.05431 1214.4375 618.75 C 1215.2043 620.7482 1227.626 620.43965 1228.4062 618.40625 C 1229.3312 615.99565 1229.0993 565.67415 1228.1562 564.1875 C 1227.7262 563.50946 1226.3699 563.16489 1223.8438 563.125 z M 1496.375 572.875 C 1498.8815 572.75191 1501.4387 573.43867 1503 575 C 1506.1227 578.12268 1505.7827 585.25705 1502.375 587.9375 C 1493.898 594.60555 1483.3944 584.10205 1490.0625 575.625 C 1491.4027 573.92116 1493.8685 572.99809 1496.375 572.875 z M 1318 573 C 1322.7086 573 1325.7921 575.29967 1326.5625 579.40625 C 1327.2659 583.15563 1325.1305 588.35355 1322.4688 589.375 C 1319.8356 590.38544 1314.6138 590.02974 1312.9062 588.71875 C 1310.1277 586.58534 1308.7736 582.97681 1309.4375 579.4375 C 1310.2107 575.31572 1313.2859 573.00003 1318 573 z M 1551.3438 573.25 C 1556.7844 573.23782 1562 577.10301 1562 581.71875 C 1562 583.94414 1561.7598 584.00003 1551.5 584 C 1541.8063 584 1541 583.83806 1541 582.0625 C 1541 579.18981 1545.6514 574.24232 1549.0312 573.5 C 1549.8037 573.33035 1550.5664 573.25174 1551.3438 573.25 z M 1701.3438 573.25 C 1706.7544 573.28 1712 577.2999 1712 581.96875 C 1712 583.88644 1711.3938 584.00003 1701.5 584 C 1691.8063 584 1691 583.83806 1691 582.0625 C 1691 579.18981 1695.6514 574.24232 1699.0312 573.5 C 1699.7958 573.33207 1700.5707 573.24571 1701.3438 573.25 z M 1090.6875 573.8125 C 1097.6368 573.8125 1101.4062 580.04107 1101.4062 591.5 C 1101.4062 599.76303 1100.1099 603.79265 1096.3438 607.1875 C 1091.5901 611.47238 1084.5418 609.66336 1081.4375 603.375 C 1078.7944 598.02092 1078.7815 585.03108 1081.4062 579.71875 C 1083.5899 575.29936 1085.9297 573.81248 1090.6875 573.8125 z M 1440.3125 573.84375 C 1442.8561 573.88054 1445.4368 574.8458 1447.25 576.75 C 1454.6546 584.52614 1452.8021 605.10393 1444.375 608.625 C 1440.4183 610.27821 1440.2985 610.28849 1436.4062 608.59375 C 1428.3438 605.08315 1426.4701 584.18162 1433.5312 576.5625 C 1435.2487 574.70934 1437.7689 573.80696 1440.3125 573.84375 z M 1314.875 618.5625 C 1322.2416 618.65579 1331.4526 619.87365 1332.6875 621.5625 C 1334.3609 623.85102 1332.4795 627.12421 1328.9062 628.125 C 1323.8115 629.55195 1311.5909 629.04389 1308 627.25 C 1303.9918 625.24767 1303.0594 622.15661 1305.7188 619.75 C 1306.7099 618.85303 1310.4551 618.50652 1314.875 618.5625 z M 1490.8438 618.5625 C 1492.1695 618.57326 1493.7756 618.6321 1495.6875 618.71875 C 1508.4591 619.29757 1512 620.35867 1512 623.625 C 1512 625.50225 1511.1634 626.46277 1508.5312 627.5625 C 1505.2152 628.948 1493.0161 629.38148 1488.5 628.28125 C 1483.6672 627.10389 1481.5376 622.61858 1484.4375 619.71875 C 1485.2764 618.87985 1486.8664 618.53022 1490.8438 618.5625 z M 1427.7812 668.96875 C 1423.5939 668.93371 1418.9943 669.73225 1416 671.25 C 1411.004 673.7823 1408.2784 677.76592 1407.1875 684.15625 C 1406.6351 687.39208 1405.9409 688.55925 1404.4688 688.78125 C 1397.8572 689.77805 1397.8648 689.77383 1398.1875 694.78125 C 1398.4336 698.59903 1398.8784 699.53968 1400.5 699.78125 C 1407.6365 700.84434 1407 698.57492 1407 722.84375 C 1407 734.8416 1407.2896 744.97708 1407.6562 745.34375 C 1408.2661 745.95373 1420.722 746.3269 1421.1875 745.75 C 1421.2984 745.6125 1421.6358 735.37503 1421.9375 723 L 1422.5 700.5 L 1428.5 700 L 1434.5 699.5 L 1434.8125 695.6875 C 1435.2531 690.33635 1433.773 689.00003 1427.375 689 C 1422.3794 689 1422 688.83363 1422 686.625 C 1422 683.0224 1424.6301 681.50003 1430.875 681.5 C 1435.9786 681.5 1436.5337 681.26561 1437.375 678.875 C 1438.7105 675.08015 1437.3758 671.09774 1434.4062 669.96875 C 1432.661 669.30522 1430.2938 668.98977 1427.7812 668.96875 z M 1633.6875 669.03125 C 1622.2426 669.07189 1615.7672 674.21877 1614.375 684.375 C 1613.7687 688.79874 1613.5973 689.00003 1610.5 689 C 1606.3287 689 1604.7953 690.92513 1605.1875 695.6875 C 1605.4871 699.32653 1605.6893 699.52369 1609.5 700 L 1613.5 700.5 L 1613.75 722 C 1613.8907 733.825 1614.2359 744.06846 1614.5 744.78125 C 1614.8442 745.70965 1616.9048 745.9933 1621.75 745.78125 L 1628.5 745.5 L 1629 723 L 1629.5 700.5 L 1635.5 700 L 1641.5 699.5 L 1641.8125 695.6875 C 1642.2531 690.33635 1640.773 689.00003 1634.375 689 C 1629.8535 689 1629 688.70841 1629 687.1875 C 1629 683.27505 1631.54 681.50003 1637.1562 681.5 C 1640.088 681.5 1643.0625 681.13243 1643.75 680.6875 C 1644.4426 680.23923 1645 677.8807 1645 675.40625 C 1645 671.53271 1644.6624 670.81467 1642.4375 669.96875 C 1641.0267 669.43236 1637.0892 669.01919 1633.6875 669.03125 z M 985.71875 670 C 982.6261 670.08073 979.51573 670.60927 978.5625 671.5625 C 977.19467 672.93032 976.98811 677.56228 977 707.3125 C 977.00751 726.11071 977.29335 742.51253 977.625 743.75 L 978.21875 746 L 1001.5 746 C 1027.3079 746 1026.03 746.35171 1026 739.15625 C 1025.9727 732.6263 1025.6997 732.54446 1009.0312 732.1875 L 994 731.84375 L 994 702.125 C 994 680.3366 993.69203 672.06703 992.8125 671.1875 C 991.90778 670.28278 988.8114 669.91927 985.71875 670 z M 1243.8438 670 C 1236.601 669.97624 1236 670.4719 1236 676.4375 C 1236 679.31199 1236.3294 681.9858 1236.7188 682.375 C 1237.108 682.76419 1240.3703 682.94124 1243.9688 682.78125 L 1250.5 682.5 L 1250.8125 677.09375 C 1251.1735 670.7519 1250.4752 670.02178 1243.8438 670 z M 1570.1562 670 C 1566.9856 670 1563.8474 670.52752 1563.1875 671.1875 C 1562.2996 672.0754 1562 681.5664 1562 707.625 C 1562 726.99502 1562.2597 743.5363 1562.5938 744.40625 C 1563.0648 745.63361 1564.7345 746.00003 1570 746 C 1575.2655 746 1576.9352 745.63364 1577.4062 744.40625 C 1578.4913 741.57876 1578.0826 674.01906 1576.9688 671.9375 C 1576.1291 670.36855 1574.8325 670.00003 1570.1562 670 z M 1594.9688 670 C 1587.5794 670 1587 670.45836 1587 676.4375 C 1587 679.31199 1587.3294 681.9858 1587.7188 682.375 C 1588.108 682.76419 1591.3703 682.94124 1594.9688 682.78125 L 1601.5 682.5 L 1601.8125 677.6875 C 1602.2119 671.42595 1600.9574 670.00003 1594.9688 670 z M 1363.3125 680.15625 C 1358.4748 680.10763 1353.8772 682.29595 1351.7812 685.75 C 1350.1575 688.42607 1349.8939 688.49479 1340.8125 688.5 C 1333.202 688.50439 1330.7688 688.90146 1327.5 690.65625 C 1315.6439 697.02095 1312.5915 709.87327 1320.7188 719.15625 C 1322.0246 720.64776 1321.9181 721.01692 1319.75 722.4375 C 1315.1348 725.46151 1313.5725 732.53045 1316.5938 736.84375 C 1318.091 738.98141 1318.0653 739.28285 1316.2188 741.3125 C 1308.3694 749.93929 1311.749 759.80263 1324 764.03125 C 1328.0026 765.41279 1332.3565 765.94492 1340.0625 765.96875 C 1353.2525 766.0095 1359.7626 764.24162 1365.2812 759.09375 C 1368.8457 755.76883 1369.3661 754.68429 1369.75 749.90625 C 1370.1086 745.44222 1369.7745 743.88752 1367.8438 741 C 1363.9356 735.15583 1358.3493 733.10356 1344.2188 732.34375 C 1331.4808 731.65884 1327.2737 730.35395 1329.75 727.84375 C 1330.5813 727.00103 1334.01 726.55419 1339.75 726.53125 C 1350.5507 726.48811 1356.7118 723.9154 1360.8125 717.71875 C 1364.3604 712.35749 1364.5039 704.24587 1361.1875 698.625 C 1358.4544 693.9928 1359.3744 692.2652 1364.8125 691.8125 L 1368.5 691.5 L 1368.5 686 L 1368.5 680.5 L 1364.2812 680.1875 C 1363.9571 680.16401 1363.635 680.15949 1363.3125 680.15625 z M 1054.0312 688 C 1048.2474 687.92115 1042.1563 689.23784 1038.3125 691.625 C 1018.5484 703.89925 1021.6465 738.45364 1043.1875 746.15625 C 1054.4043 750.1671 1068.8392 746.32756 1075.125 737.65625 C 1080.8638 729.7396 1079.626 727.00003 1070.2812 727 C 1065.574 727 1064.8128 727.30461 1063.8125 729.5 C 1063.1896 730.86728 1061.5908 732.68395 1060.25 733.5625 C 1057.3424 735.46761 1050.0571 735.65934 1047.25 733.90625 C 1044.5954 732.24844 1042.2106 728.13771 1041.8125 724.46875 L 1041.5 721.5 L 1060.5 721 L 1079.5 720.5 L 1079.375 713.96875 C 1079.124 702.2694 1071.6495 691.84169 1061.5 689 C 1059.2411 688.36755 1056.6604 688.03584 1054.0312 688 z M 1209.2812 688 C 1204.5309 687.92347 1199.4822 689.14051 1196.5938 691.34375 C 1194.6149 692.85303 1193 693.66367 1193 693.125 C 1193 692.5863 1192.3018 691.42677 1191.4375 690.5625 C 1189.5519 688.67692 1180.9618 688.41311 1179.1875 690.1875 C 1178.3164 691.05862 1178 698.45529 1178 717.125 C 1178 731.27002 1178.2821 743.57518 1178.625 744.46875 C 1179.1305 745.78599 1180.5024 746.0187 1185.875 745.78125 L 1192.5 745.5 L 1193.0625 727.5 C 1193.3671 717.6 1194.0927 708.37503 1194.6875 707 C 1197.723 699.98232 1207.0607 697.72296 1210.2188 703.25 C 1211.0867 704.76904 1211.6607 711.92621 1212 725.5 L 1212.5 745.5 L 1219.5 745.5 L 1226.5 745.5 L 1226.7812 725.1875 C 1226.9428 713.07234 1226.6026 703.26042 1225.9688 700.90625 C 1224.5889 695.78175 1219.8311 690.41847 1215.3438 688.9375 C 1213.5277 688.33815 1211.4406 688.03479 1209.2812 688 z M 1289.3125 688 C 1285.9133 688.11323 1282.4676 688.91347 1279.6875 690.40625 C 1274.1024 693.40523 1274 693.4301 1274 691.59375 C 1274 689.80353 1271.8069 689.00003 1267 689 C 1259.5512 689 1260 687.17373 1260 717.4375 C 1260 732.41199 1260.3294 744.9858 1260.7188 745.375 C 1261.108 745.76419 1264.3703 745.94124 1267.9688 745.78125 L 1274.5 745.5 L 1275 727 C 1275.5454 706.82087 1276.3704 703.51041 1281.4688 701.1875 C 1285.3419 699.42277 1287.567 699.72203 1290.6875 702.40625 L 1293.4688 704.8125 L 1294 725.15625 L 1294.5 745.5 L 1301.2188 745.78125 C 1307.7128 746.06634 1307.9674 745.99558 1308.5938 743.5 C 1308.9503 742.07976 1309.0462 732.28576 1308.8125 721.71875 C 1308.3322 700.0004 1307.1508 695.38398 1300.9062 690.9375 C 1298.3168 689.09365 1294.6087 688.09221 1290.75 688 C 1290.2677 687.98847 1289.7981 687.98382 1289.3125 688 z M 1460.75 688 C 1446.6641 688 1436.7638 696.76598 1434.0938 711.5625 C 1431.2661 727.23154 1439.0786 742.49517 1451.9688 746.46875 C 1465.3881 750.60552 1478.6717 745.4107 1484.7188 733.65625 C 1486.8511 729.51102 1487.4497 726.74578 1487.7812 719.5 C 1488.3268 707.5735 1485.986 700.97156 1479.0312 694.71875 C 1473.5291 689.77182 1468.6869 688.00003 1460.75 688 z M 1521.9062 688 C 1517.5095 688 1514.7409 689.13288 1511.25 692.3125 C 1510.0125 693.43964 1509 693.85657 1509 693.25 C 1509 690.84496 1505.7484 689.00003 1501.5 689 C 1493.9299 689 1494 688.74424 1494 717.5 C 1494 731.44073 1494.2597 743.5363 1494.5938 744.40625 C 1495.0648 745.63361 1496.7345 746.00003 1502 746 C 1507.2655 746 1508.9352 745.63364 1509.4062 744.40625 C 1509.7401 743.53627 1510 736.07187 1510 727.8125 C 1510 707.58438 1511.0956 705.30008 1522 702.53125 C 1526.3991 701.41423 1526.5042 701.28794 1526.8125 697.03125 C 1527.3585 689.49276 1526.548 688.00003 1521.9062 688 z M 1111.5 688.03125 C 1102.3255 688.01246 1097.6687 689.07186 1092.9062 692.28125 C 1086.5328 696.57635 1082.7985 704.94981 1086.5938 706.40625 C 1087.4638 706.7401 1090.2094 707.00003 1092.7188 707 C 1096.7355 707 1097.6572 706.56476 1100.4688 703.3125 C 1103.4286 699.88844 1104.0911 699.61439 1109.3125 699.5625 C 1115.5538 699.50046 1118.5519 701.43932 1119.1562 705.9375 C 1119.4762 708.31924 1119.2349 708.43198 1109.8125 709.625 C 1091.3245 711.96585 1083 718.29139 1083 730 C 1083 738.11323 1087.9677 744.53001 1096 746.8125 C 1103.2268 748.86609 1110.1048 747.78525 1116.2812 743.59375 L 1119.7812 741.21875 L 1120.875 743.59375 C 1121.8617 745.75933 1122.56 746.00003 1128.4062 746 C 1131.9606 746 1135.0539 745.66253 1135.25 745.25 C 1136.1464 743.36521 1134.2079 702.24298 1133.0938 699.5 C 1129.9135 691.67017 1123.0961 688.05498 1111.5 688.03125 z M 1668.5 688.03125 C 1657.0383 688.03125 1649.4402 692.55574 1644.1562 702.5 C 1641.7667 706.99708 1641.5 708.55616 1641.5 718 C 1641.5 727.87478 1641.6932 728.82753 1644.5938 734 C 1647.8274 739.76671 1654.4676 745.19418 1660.375 746.90625 C 1672.7688 750.49826 1687.5717 744.64022 1693 734 C 1695.4844 729.13022 1694.4027 727.786 1687.5625 727.21875 C 1682.0233 726.75939 1681.8745 726.81364 1678.125 730.875 C 1674.4248 734.88303 1672.8243 735.47839 1667 735.03125 C 1661.7636 734.62924 1657 728.91154 1657 723.03125 C 1657 721.06179 1657.5732 721.00003 1675.4688 721 C 1685.8299 721 1691.1608 721.01675 1693.7188 719.96875 L 1694.25 719.96875 L 1694.2188 719.75 C 1696.4422 718.52286 1695.9183 716.07901 1695.0312 711.28125 C 1692.2004 695.9676 1683.1541 688.03125 1668.5 688.03125 z M 1174.5 688.5 L 1169.4688 688.53125 C 1165.9046 688.55339 1163.5167 689.21177 1161.3125 690.78125 C 1157.6759 693.37079 1157 693.48616 1157 691.59375 C 1157 690.82759 1156.2764 689.92762 1155.4062 689.59375 C 1152.6827 688.54864 1145.4428 688.93208 1144.1875 690.1875 C 1142.8601 691.51492 1142.4147 744.07105 1143.7188 745.375 C 1144.108 745.76419 1147.3703 745.94124 1150.9688 745.78125 L 1157.5 745.5 L 1158.0312 729 C 1158.6951 707.86049 1159.91 705.096 1169.7188 702.59375 L 1174.5 701.375 L 1174.5 694.9375 L 1174.5 688.5 z M 1592.1562 688.96875 C 1586.5359 688.97501 1587 690.66877 1587 717.4375 C 1587 732.41199 1587.3294 744.9858 1587.7188 745.375 C 1588.108 745.76419 1591.3703 745.94124 1594.9688 745.78125 L 1601.5 745.5 L 1601.7812 718.625 C 1601.9696 699.6323 1601.7112 691.34484 1600.9062 690.375 C 1600.2306 689.56088 1597.8135 689.00003 1594.9688 689 C 1593.8985 689 1592.9593 688.96786 1592.1562 688.96875 z M 1242.0312 689.03125 C 1240.1396 689.08199 1238.4491 689.26551 1237.5938 689.59375 C 1236.205 690.12668 1236 693.53311 1236 717.4375 C 1236 732.41199 1236.3294 744.9858 1236.7188 745.375 C 1237.108 745.76419 1240.3703 745.94124 1243.9688 745.78125 L 1250.5 745.5 L 1250.7812 718.0625 C 1250.9879 696.78366 1250.7637 690.46734 1249.7812 689.84375 C 1248.8501 689.25266 1245.1841 688.94668 1242.0312 689.03125 z M 1340.125 699.03125 C 1345.7179 698.98238 1348.5 701.78644 1348.5 707.5 C 1348.5 711.20844 1347.9969 712.57789 1346.125 714.09375 C 1343.5871 716.14882 1337.6264 716.61062 1334.8125 714.96875 C 1332.2252 713.45915 1330.7212 707.83222 1332 704.46875 C 1333.4564 700.63825 1335.8042 699.06898 1340.125 699.03125 z M 1053.2188 699.59375 C 1056.9082 699.68553 1060.524 701.559 1062.3125 705.21875 C 1063.3147 707.26953 1063.8471 709.407 1063.5 709.96875 C 1063.1387 710.55334 1058.6145 711.00003 1052.9062 711 C 1041.5921 711 1040.4876 710.2431 1043.6875 704.75 C 1045.7634 701.18639 1049.5292 699.50197 1053.2188 699.59375 z M 1668.4375 699.6875 C 1668.7101 699.68131 1668.978 699.67345 1669.25 699.6875 C 1671.8608 699.82236 1674.4161 700.9101 1676.3125 703.03125 C 1677.9863 704.90351 1678.9965 707.05156 1678.8125 708.34375 C 1678.5219 710.38383 1677.912 710.51397 1668.3438 710.78125 C 1662.7503 710.9375 1657.9262 710.71795 1657.6562 710.28125 C 1657.3863 709.84455 1657.7681 708.05303 1658.5 706.3125 C 1660.2612 702.12393 1664.3486 699.78035 1668.4375 699.6875 z M 1460.5938 700.0625 C 1462.6317 699.98402 1464.7136 700.32165 1466.1562 701.09375 C 1473.1145 704.8177 1474.1969 726.72655 1467.7188 732.8125 C 1462.9981 737.24742 1456.8223 736.38247 1452.5938 730.6875 C 1450.9823 728.5173 1450.4363 726.03911 1450.1562 719.875 C 1449.7476 710.87669 1451.6553 704.06156 1455.3125 701.5 C 1456.5629 700.62416 1458.5557 700.14098 1460.5938 700.0625 z M 1119.9375 720 L 1119.3438 723.25 C 1118.3718 728.36267 1116.1574 731.91549 1112.6875 734.03125 C 1105.0945 738.66093 1097.467 734.28834 1099.4375 726.4375 C 1100.3276 722.89079 1106.8601 720.0595 1114.2188 720.03125 L 1119.9375 720 z M 1337.9375 745 C 1352.8312 745.00869 1358.0335 747.25043 1354.1875 752 C 1352.1111 754.56426 1344.1042 755.83256 1335.7188 754.90625 C 1329.7257 754.24425 1326 751.97656 1326 749.03125 C 1326 745.73272 1328.1961 744.9943 1337.9375 745 z "
     id="path2386" />
</svg>
